<svg width="801" height="187" viewBox="0 0 801 187" fill="none" xmlns="http://www.w3.org/2000/svg">
<rect x="71.55" y="14" width="15.9" height="159" fill="white"/>
<rect x="107.325" y="18.77" width="15.9" height="159" transform="rotate(26 107.325 18.77)" fill="white"/>
<rect y="101.45" width="15.9" height="159" transform="rotate(-90 0 101.45)" fill="white"/>
<rect x="4.77002" y="65.675" width="15.9" height="159" transform="rotate(-64 4.77002 65.675)" fill="white"/>
<path d="M203.733 148V40.6104H252.519C264.178 40.6104 274.457 42.8605 283.355 47.3606C292.253 51.7585 299.208 57.9462 304.219 65.9237C309.231 73.9012 311.737 83.3617 311.737 94.3052C311.737 105.146 309.231 114.607 304.219 122.687C299.208 130.664 292.253 136.903 283.355 141.403C274.457 145.801 264.178 148 252.519 148H203.733ZM228.586 127.596H251.292C258.451 127.596 264.639 126.266 269.855 123.607C275.173 120.846 279.264 116.959 282.128 111.948C285.094 106.936 286.577 101.055 286.577 94.3052C286.577 87.4527 285.094 81.5719 282.128 76.6626C279.264 71.6511 275.173 67.8158 269.855 65.1566C264.639 62.3952 258.451 61.0144 251.292 61.0144H228.586V127.596ZM369.753 149.227C360.344 149.227 352.06 147.386 344.9 143.704C337.843 140.022 332.372 135.011 328.485 128.67C324.599 122.227 322.655 114.914 322.655 106.732C322.655 98.4474 324.547 91.1347 328.332 84.7936C332.218 78.3502 337.485 73.3387 344.133 69.759C350.781 66.0771 358.298 64.2361 366.685 64.2361C374.765 64.2361 382.026 65.9748 388.47 69.4522C395.015 72.8273 400.18 77.7365 403.965 84.1799C407.749 90.521 409.641 98.1406 409.641 107.039C409.641 107.959 409.59 109.033 409.487 110.26C409.385 111.385 409.283 112.459 409.181 113.482H342.139V99.5213H396.601L387.396 103.663C387.396 99.3679 386.527 95.6348 384.788 92.4642C383.049 89.2937 380.646 86.8391 377.577 85.1004C374.509 83.2594 370.929 82.3389 366.838 82.3389C362.747 82.3389 359.117 83.2594 355.946 85.1004C352.878 86.8391 350.474 89.3448 348.736 92.6177C346.997 95.7882 346.128 99.5724 346.128 103.97V107.652C346.128 112.152 347.099 116.141 349.042 119.618C351.088 122.994 353.901 125.602 357.48 127.443C361.162 129.181 365.458 130.051 370.367 130.051C374.765 130.051 378.6 129.386 381.873 128.056C385.248 126.727 388.316 124.732 391.078 122.073L403.811 135.88C400.027 140.176 395.271 143.5 389.544 145.852C383.816 148.102 377.219 149.227 369.753 149.227ZM478.655 149.841C470.371 149.841 462.649 148.511 455.49 145.852C448.433 143.091 442.296 139.204 437.08 134.193C431.864 129.181 427.773 123.3 424.807 116.55C421.944 109.8 420.512 102.385 420.512 94.3052C420.512 86.2254 421.944 78.8104 424.807 72.0602C427.773 65.31 431.864 59.4292 437.08 54.4177C442.399 49.4061 448.586 45.5708 455.643 42.9116C462.7 40.1502 470.422 38.7695 478.809 38.7695C488.116 38.7695 496.503 40.4059 503.969 43.6787C511.537 46.8492 517.878 51.5539 522.992 57.7928L507.037 72.5205C503.355 68.3272 499.264 65.2077 494.764 63.1622C490.264 61.0144 485.355 59.9405 480.036 59.9405C475.025 59.9405 470.422 60.7588 466.229 62.3952C462.036 64.0316 458.405 66.3839 455.337 69.4522C452.268 72.5205 449.865 76.1513 448.126 80.3446C446.49 84.5379 445.672 89.1914 445.672 94.3052C445.672 99.419 446.49 104.073 448.126 108.266C449.865 112.459 452.268 116.09 455.337 119.158C458.405 122.227 462.036 124.579 466.229 126.215C470.422 127.852 475.025 128.67 480.036 128.67C485.355 128.67 490.264 127.647 494.764 125.602C499.264 123.454 503.355 120.232 507.037 115.937L522.992 130.664C517.878 136.903 511.537 141.659 503.969 144.932C496.503 148.205 488.065 149.841 478.655 149.841ZM589.689 149.841C581.2 149.841 573.324 148.46 566.063 145.699C558.904 142.937 552.665 139.051 547.346 134.039C542.13 129.028 538.039 123.147 535.073 116.397C532.21 109.647 530.778 102.283 530.778 94.3052C530.778 86.3277 532.21 78.9638 535.073 72.2136C538.039 65.4634 542.182 59.5826 547.5 54.5711C552.818 49.5595 559.057 45.6731 566.216 42.9116C573.376 40.1502 581.149 38.7695 589.535 38.7695C598.024 38.7695 605.797 40.1502 612.854 42.9116C620.013 45.6731 626.201 49.5595 631.417 54.5711C636.735 59.5826 640.878 65.4634 643.844 72.2136C646.81 78.8616 648.293 86.2254 648.293 94.3052C648.293 102.283 646.81 109.698 643.844 116.55C640.878 123.3 636.735 129.181 631.417 134.193C626.201 139.102 620.013 142.937 612.854 145.699C605.797 148.46 598.075 149.841 589.689 149.841ZM589.535 128.67C594.342 128.67 598.74 127.852 602.729 126.215C606.82 124.579 610.399 122.227 613.468 119.158C616.536 116.09 618.888 112.459 620.525 108.266C622.263 104.073 623.133 99.419 623.133 94.3052C623.133 89.1914 622.263 84.5379 620.525 80.3446C618.888 76.1513 616.536 72.5205 613.468 69.4522C610.502 66.3839 606.973 64.0316 602.882 62.3952C598.791 60.7588 594.342 59.9405 589.535 59.9405C584.728 59.9405 580.279 60.7588 576.188 62.3952C572.199 64.0316 568.671 66.3839 565.603 69.4522C562.534 72.5205 560.131 76.1513 558.392 80.3446C556.756 84.5379 555.938 89.1914 555.938 94.3052C555.938 99.3167 556.756 103.97 558.392 108.266C560.131 112.459 562.483 116.09 565.449 119.158C568.518 122.227 572.097 124.579 576.188 126.215C580.279 127.852 584.728 128.67 589.535 128.67ZM666.971 148V40.6104H687.528L733.245 116.397H722.353L767.303 40.6104H787.707L788.014 148H764.695L764.542 76.3558H768.837L732.939 136.647H721.739L685.074 76.3558H690.29V148H666.971Z" fill="white"/>
</svg>
